<svg width="15" height="12" viewBox="0 0 15 12" fill="none" xmlns="http://www.w3.org/2000/svg">
<path d="M0 9.88235H11.25V12H0V9.88235ZM13.875 9.88235H15V12H13.875V9.88235ZM12 9.88235H13.125V12H12V9.88235ZM12.6375 4.04471C13.1025 3.61412 13.3875 3.02118 13.3875 2.36471C13.3875 1.05882 12.2625 0 10.875 0V1.05882C11.625 1.05882 12.2625 1.64471 12.2625 2.36471C12.2625 3.08471 11.625 3.67059 10.875 3.67059V4.72941C12.555 4.72941 13.875 6.02118 13.875 7.60235V9.17647H15V7.59529C15 6.02824 14.04 4.67294 12.6375 4.04471ZM10.5225 5.78824H9.375C8.625 5.78824 7.9875 5.09647 7.9875 4.37647C7.9875 3.65647 8.625 3.14118 9.375 3.14118V2.08235C8.70864 2.08235 8.06958 2.33149 7.59839 2.77496C7.12721 3.21843 6.8625 3.8199 6.8625 4.44706C6.8625 5.07422 7.12721 5.67569 7.59839 6.11916C8.06958 6.56263 8.70864 6.81176 9.375 6.81176H10.5225C11.31 6.81176 12 7.33412 12 8.25882V9.17647H13.125V8.01882C13.125 6.74118 11.925 5.78824 10.5225 5.78824Z" fill="#1D6FEA"/>
</svg>
