<svg width="16" height="10" viewBox="0 0 16 10" fill="none" xmlns="http://www.w3.org/2000/svg">
<path d="M5.60209 4.99895C5.60209 6.32491 6.67761 7.39981 8.00435 7.39981C9.33107 7.39981 10.4066 6.32491 10.4066 4.99895C10.4066 3.67298 9.33107 2.59809 8.00435 2.59809C6.67761 2.59808 5.60209 3.67299 5.60209 4.99895ZM8 0C9.37367 0.00635641 10.7975 0.355208 12.1454 1.0231C13.1462 1.53943 14.1215 2.2679 14.9681 3.16705C15.3839 3.62603 15.9143 4.29063 16 4.99973C15.9899 5.61396 15.3583 6.37212 14.9681 6.83242C14.1742 7.69625 13.2243 8.40439 12.1454 8.9769C10.8884 9.61325 9.49717 9.97962 8 10C6.62503 9.99355 5.20149 9.64067 3.85512 8.9769C2.85435 8.46057 1.87855 7.73157 1.03192 6.83242C0.61612 6.37344 0.0857592 5.70882 0 4.99973C0.0101328 4.38549 0.641733 3.62731 1.03192 3.16702C1.82583 2.30319 2.77624 1.5956 3.85512 1.02308C5.11141 0.387213 6.50611 0.0233532 8 0ZM8.00101 1.24135C5.91943 1.24135 4.23201 2.92426 4.23201 5.00027C4.23201 7.07627 5.91943 8.75918 8.00101 8.75918C10.0826 8.75918 11.77 7.07626 11.77 5.00027C11.77 2.92426 10.0826 1.24135 8.00101 1.24135Z" fill="#1D6FEA"/>
</svg>
