<svg width="19" height="23" viewBox="0 0 19 23" fill="none" xmlns="http://www.w3.org/2000/svg">
<path d="M9.4449 0.399994C10.0295 0.399994 10.5901 0.631779 11.0035 1.04436C11.4168 1.45694 11.6491 2.01652 11.6491 2.59999C11.6491 3.82099 10.6682 4.79999 9.4449 4.79999C8.86031 4.79999 8.29967 4.56821 7.88631 4.15563C7.47294 3.74305 7.24072 3.18347 7.24072 2.59999C7.24072 2.01652 7.47294 1.45694 7.88631 1.04436C8.29967 0.631779 8.86031 0.399994 9.4449 0.399994ZM9.87471 14.469C11.4402 14.4629 13.0046 14.5548 14.5586 14.744C14.6247 11.752 14.3602 9.11199 13.8532 8.09999C13.71 7.80299 13.5116 7.54999 13.3022 7.32999L4.40835 14.942C5.90719 14.7 7.79176 14.469 9.87471 14.469ZM4.44142 16.9C4.58469 18.814 4.87123 20.75 5.33411 22.4H7.61543C7.29582 21.432 7.06439 20.299 6.88805 19.1C6.88805 19.1 9.4449 18.616 12.0017 19.1C11.8254 20.299 11.594 21.432 11.2744 22.4H13.5557C14.0406 20.695 14.3271 18.671 14.4704 16.669C12.9455 16.485 11.4108 16.3931 9.87471 16.394C7.74768 16.394 5.89617 16.625 4.44142 16.9ZM9.4449 5.89999C9.4449 5.89999 6.13863 5.89999 5.03654 8.09999C4.66183 8.84799 4.41937 10.465 4.34223 12.456L11.5609 6.27399C10.4698 5.89999 9.4449 5.89999 9.4449 5.89999ZM16.6856 4.43699L15.4292 2.97399L11.5609 6.28499C12.1671 6.49399 12.8063 6.82399 13.3022 7.32999L16.6856 4.43699ZM19 15.613C18.9008 15.58 17.3138 15.063 14.5586 14.744C14.5476 15.371 14.5145 16.02 14.4704 16.669C16.9501 16.977 18.3718 17.45 18.3939 17.45L19 15.613ZM4.34223 12.456L0 16.174L0.980859 17.802C1.0029 17.791 2.28132 17.296 4.44142 16.9C4.32019 15.349 4.28712 13.82 4.34223 12.456Z" fill="#1D6FEA"/>
</svg>
